Coordinates
version=1
nRows=20
nColumns=38
inDegrees=no

Units are S.I. units (second, meters, Newtons, ...)
If the header above contains a line with 'inDegrees', this indicates whether rotational values are in degrees (yes) or radians (no).

endheader
time	pelvis_tilt	pelvis_list	pelvis_rotation	pelvis_tx	pelvis_ty	pelvis_tz	hip_flexion_r	hip_adduction_r	hip_rotation_r	knee_angle_r	ankle_angle_r	subtalar_angle_r	mtp_angle_r	hip_flexion_l	hip_adduction_l	hip_rotation_l	knee_angle_l	ankle_angle_l	subtalar_angle_l	mtp_angle_l	lumbar_extension	lumbar_bending	lumbar_rotation	arm_flex_r	arm_add_r	arm_rot_r	elbow_flex_r	pro_sup_r	wrist_flex_r	wrist_dev_r	arm_flex_l	arm_add_l	arm_rot_l	elbow_flex_l	pro_sup_l	wrist_flex_l	wrist_dev_l
160	-1.77132	1.46403	0.418129	0.737454	1.80862	0.894457	0.585642	-0.108749	-0.0741105	0.6878	-0.1371	0	0	-0.242799	-0.049422	-0.34113	0	-0.192214	0	0	-0.0572111	0.173679	-0.0669623	-0.189625	-0.3392	0.0607248	0.638062	1.42998	0	0	0.188235	-0.0589063	0.408449	0.350936	1.5708	0	0
160.01	-1.7926	1.46459	0.439813	0.738394	1.80432	0.893412	0.592983	-0.109898	-0.0757914	0.66637	-0.132177	0	0	-0.246525	-0.0480526	-0.343544	0	-0.187774	0	0	-0.0528869	0.173216	-0.0674907	-0.193659	-0.341043	0.0615794	0.636129	1.42836	0	0	0.18791	-0.0588702	0.416555	0.352156	1.5708	0	0
160.02	-1.85714	1.46358	0.502842	0.738524	1.8002	0.891931	0.606129	-0.108934	-0.0622175	0.646231	-0.126418	0	0	-0.244194	-0.0463414	-0.343191	0	-0.182318	0	0	-0.0459579	0.172282	-0.0675332	-0.196008	-0.341828	0.0622104	0.634598	1.4276	0	0	0.190082	-0.0592589	0.430348	0.349506	1.5708	0	0
160.03	-1.99965	1.4616	0.639325	0.735697	1.79782	0.889214	0.630951	-0.103729	0.00279456	0.627417	-0.117601	0	0	-0.229798	-0.0426669	-0.330864	0	-0.171245	0	0	-0.0378838	0.160763	-0.060768	-0.192976	-0.334722	0.0612803	0.629552	1.42547	0	0	0.182828	-0.0697051	0.409312	0.378192	1.5708	0	0
160.04	-2.13571	1.45818	0.770789	0.731356	1.79643	0.886397	0.663374	-0.0953072	0.04614	0.624307	-0.111352	0	0	-0.217471	-0.0399184	-0.306227	0	-0.16158	0	0	-0.0331048	0.146812	-0.0538609	-0.186638	-0.323777	0.0594502	0.624286	1.42216	0	0	0.185214	-0.0870274	0.428569	0.400632	1.5708	0	0
160.05	-2.18347	1.45793	0.816895	0.729741	1.79293	0.884751	0.67657	-0.0932064	0.0615678	0.615301	-0.104907	0	0	-0.211047	-0.0410326	-0.300276	0	-0.149773	0	0	-0.0329908	0.14068	-0.0503935	-0.185326	-0.319828	0.0588029	0.622115	1.41826	0	0	0.160488	-0.12693	0.490655	0.458092	1.5708	0	0
160.06	-2.18887	1.45884	0.822669	0.729887	1.78818	0.883597	0.68101	-0.0940205	0.0633663	0.605935	-0.0994308	0	0	-0.216836	-0.041178	-0.30077	0	-0.146049	0	0	-0.034718	0.140396	-0.0494405	-0.187245	-0.320526	0.0578478	0.622868	1.41591	0	0	0.160224	-0.127898	0.490543	0.464037	1.5708	0	0
160.07	-2.18166	1.45989	0.816862	0.730437	1.78301	0.882559	0.682914	-0.0951725	0.0623409	0.597823	-0.0935908	0	0	-0.224386	-0.0418516	-0.302768	0	-0.14244	0	0	-0.0368035	0.141931	-0.0497417	-0.189643	-0.322257	0.0568365	0.624311	1.41426	0	0	0.159762	-0.126919	0.489199	0.467489	1.5708	0	0
160.08	-2.17173	1.46077	0.809102	0.731035	1.77778	0.881449	0.684005	-0.0960378	0.0626991	0.590625	-0.0848854	0	0	-0.236569	-0.0416708	-0.301922	0	-0.137768	0	0	-0.0388357	0.144018	-0.0497509	-0.192789	-0.323717	0.0536597	0.626575	1.41336	0	0	0.15969	-0.12521	0.487634	0.470566	1.5708	0	0
160.09	-2.16528	1.46246	0.804774	0.731472	1.7723	0.880435	0.685276	-0.0977069	0.0612573	0.586927	-0.0811299	0	0	-0.239809	-0.0437185	-0.304808	0	-0.133333	0	0	-0.0410163	0.144821	-0.0503579	-0.194135	-0.324512	0.0520771	0.626594	1.41336	0	0	0.159604	-0.123981	0.486815	0.472705	1.5708	0	0
160.1	-2.15891	1.46364	0.800321	0.731975	1.76664	0.879285	0.686167	-0.0981809	0.063368	0.583705	-0.0744073	0	0	-0.247385	-0.0446726	-0.307074	0	-0.128982	0	0	-0.0429168	0.146358	-0.0506797	-0.19622	-0.325713	0.0489723	0.628395	1.4147	0	0	0.158662	-0.121747	0.482648	0.475051	1.5708	0	0
160.11	-2.15201	1.46509	0.795036	0.73243	1.76069	0.878237	0.685761	-0.098626	0.0647061	0.579092	-0.0688492	0	0	-0.255807	-0.0458321	-0.312039	0	-0.125406	0	0	-0.0449083	0.147892	-0.0507539	-0.19808	-0.326737	0.0454984	0.629847	1.41679	0	0	0.156684	-0.118552	0.475605	0.476829	1.5708	0	0
160.12	-2.17453	1.46307	0.821561	0.732886	1.75492	0.876668	0.690371	-0.0998264	0.0667493	0.575586	-0.0646268	0	0	-0.25839	-0.047388	-0.307176	0	-0.120713	0	0	-0.041646	0.149438	-0.0538063	-0.199448	-0.327393	0.0423861	0.630908	1.41958	0	0	0.154582	-0.116321	0.470221	0.478311	1.5708	0	0
160.13	-2.18699	1.46256	0.837836	0.733287	1.74891	0.87529	0.691939	-0.100985	0.0684285	0.571404	-0.0614549	0	0	-0.263182	-0.0489884	-0.305801	0	-0.117022	0	0	-0.0404522	0.150426	-0.056505	-0.200211	-0.327869	0.0392488	0.631868	1.42235	0	0	0.153416	-0.114927	0.467995	0.479704	1.5708	0	0
160.14	-2.18789	1.46399	0.842214	0.733628	1.74264	0.874133	0.690408	-0.102308	0.0687808	0.567831	-0.0592948	0	0	-0.270895	-0.0507555	-0.308437	0	-0.114201	0	0	-0.0414305	0.150787	-0.0577105	-0.200988	-0.328075	0.0354785	0.632386	1.42469	0	0	0.153586	-0.113406	0.468083	0.479507	1.5708	0	0
160.15	-2.21197	1.46227	0.870923	0.73407	1.73623	0.87249	0.692894	-0.104442	0.0674633	0.565714	-0.0585384	0	0	-0.274293	-0.0526026	-0.305495	0	-0.110623	0	0	-0.0369711	0.151456	-0.0601371	-0.202735	-0.328452	0.0311804	0.633079	1.42684	0	0	0.15275	-0.111207	0.46748	0.478533	1.5708	0	0
160.16	-2.23076	1.46064	0.895396	0.73442	1.72973	0.870941	0.693468	-0.106455	0.0650664	0.562985	-0.0595167	0	0	-0.278138	-0.0556225	-0.303274	0	-0.108029	0	0	-0.033209	0.152118	-0.0640246	-0.203132	-0.328313	0.0269202	0.633174	1.42953	0	0	0.151709	-0.109487	0.466062	0.478367	1.5708	0	0
160.17	-2.25631	1.45904	0.925577	0.734714	1.72293	0.869398	0.693629	-0.107477	0.0655708	0.560439	-0.0621717	0	0	-0.282264	-0.0575458	-0.302907	0	-0.107138	0	0	-0.0287788	0.152046	-0.067257	-0.203487	-0.328272	0.0231774	0.633317	1.43406	0	0	0.150372	-0.107322	0.46341	0.477405	1.5708	0	0
160.18	-2.28327	1.45778	0.957297	0.734984	1.71591	0.867937	0.693204	-0.108715	0.0649968	0.559631	-0.067602	0	0	-0.286897	-0.0591479	-0.30275	0	-0.107578	0	0	-0.0244668	0.151414	-0.0707949	-0.203326	-0.327926	0.0189629	0.633223	1.43924	0	0	0.148411	-0.106024	0.461824	0.476704	1.5708	0	0
160.19	-2.30923	1.45631	0.987911	0.735119	1.70864	0.866528	0.69256	-0.109415	0.0631879	0.560935	-0.0767767	0	0	-0.291189	-0.0613487	-0.303071	0	-0.108741	0	0	-0.0201074	0.150698	-0.074723	-0.202478	-0.327163	0.0144005	0.632987	1.44541	0	0	0.145733	-0.105261	0.460108	0.476519	1.5708	0	0
